<?xml version="1.0" encoding="utf-8"?>
<!-- Generator: Adobe Illustrator 23.0.4, SVG Export Plug-In . SVG Version: 6.00 Build 0)  -->
<svg version="1.1" id="Layer_1" xmlns="http://www.w3.org/2000/svg" xmlns:xlink="http://www.w3.org/1999/xlink" x="0px" y="0px"
	 viewBox="0 0 600 500" style="enable-background:new 0 0 600 500;" xml:space="preserve">
<style type="text/css">
	.st0{fill:#FFFFFF;}
</style>
<g>
	<path d="M413.2,153.5c8.4-2.4,16.8-4.9,25.2-7.2c9-2.4,17.9-5.1,27.1-6.5c4.9-0.8,10.3,0.2,15.3,1.4c11.8,2.8,23.5,6.1,35.2,9.3
		c6,1.6,10.2,6.5,10.5,12.7c0.5,9.8,4.5,17.3,12.7,22.9c5.8,4,11,9,16.3,13.8c5.2,4.7,6,11.3,6.3,17.8c0.3,7,0,14,0.8,21
		c1.1,10.4-2.9,18.6-9.1,26.5c-2.7,3.5-4.2,8.1-5.6,12.4c-0.5,1.4,0.5,3.5,1.3,5c1.6,3.1,4.1,5.8,5.3,9c2.3,6.1,4.1,12.3,0.1,18.6
		c-1.4,2.2-2,4.9-2.9,7.4c-2.9,8.8-5,17.6-12.9,24.1c-3.5,2.9-4.6,8.9-6.3,13.7c-1.9,5.5-3.6,11.1-4.8,16.7
		c-1.5,7.5,0.2,14.7,1.7,22.1c0.9,4.6-0.3,9.8-0.9,14.6c-0.1,0.9-1.6,2-2.7,2.4c-5.1,1.9-10.3,3.6-15.5,5.3
		c-12.6,4-25.3,7.7-37.9,11.9c-1.9,0.6-3.9,3.1-4.6,5.1c-1.5,4.4-2.6,9-3.2,13.5c-1.3,10.2-5.7,14.4-15.7,15.4
		c-4.7,0.5-9.4,1.8-14.1,3.1c-1.4,0.4-2.6,1.9-3.5,3.2c-2,2.9-3.6,6-5.6,8.9c-6.6,9.3-13,10.5-23,4.6c-5.9-3.5-11.9-6.7-17.6-10.5
		c-7.3-4.9-14.4-4.9-22-0.9c-5.2,2.7-10.7,2.1-15.6-1.2c-4.8-3.2-9.6-6.6-14.2-10.3c-5.5-4.4-11.3-5.1-18.2-3.9
		c-8.8,1.5-17.8,2.4-26.8,2.4c-3.8,0-7.7-2.6-11.3-4.6c-2.4-1.3-4.5-3.4-6.5-5.4c-4.3-4.3-9.3-6-15.3-5.7c-10,0.5-18.1-3.6-24.6-11
		c-1.6-1.8-2.6-4.1-3.5-6.4c-0.9-2.1-1.1-4.5-1.9-6.7c-1.5-4.5-5.6-6.6-10.3-6c-13.1,1.8-25,6.5-36,13.7c-15,9.8-30.3,9.4-45.7,0.9
		c-1.9-1-3.3-3.4-4.4-5.4c-1-1.9-1.2-4.1-1.8-6.2c-3.5-10.7-7.8-13.8-19-12.4c-12.7,1.6-24.6-0.8-35.9-5.9c-3.3-1.5-6.5-4.4-8.5-7.4
		c-4-6.2-8.3-12.7-10.4-19.7c-1.3-4.4,0.5-10.2,2.1-15c2.6-7.9,5.7-15.6,9.3-23.1c3.2-6.7,7.2-13,11.3-19.2
		c8-12,16.2-23.9,24.5-35.8c3.4-4.9,0.7-7,4.8-11.3c5.4-5.8,7.8-1.8,7.1-9.7c-0.7-7.6,4.9-29.1,7.1-36.3c1.3-4.3,2.2,1.6,6.1-1.6
		c5.7-4.6,7.3-11,7.9-18.5c0.1-1.4,6.8-18.2,6.2-19.4c-4.5-8.4-7.8-9.6-7.7-19.6c0.1-9-4.8-16.5-9.2-23.9c-5.6-9.1-11.4-18-13-29
		c4.8-3.4,9.7-5.5,16.1-4.2c11.6,2.3,22-1.5,30.3-9.4c2.9-2.7,3.3-8.3,4.3-12.7c0.6-2.4,0.4-5,0.4-7.5c0-6.1,3.9-9.6,8.5-12.5
		c4.3-2.8,9.4-4.6,13.2-7.9c9.3-8,19.4-7.6,30-4.4c10.7,3.2,21.3,6.7,32,9.6c2.1,0.6,5.2-0.1,7.2-1.3c6.8-4.1,13.8-8.1,20-13
		c7.8-6.2,14.9-13.2,22.3-19.8c5.2-4.6,9.6-10.2,16.9-12c2.6-0.6,4.1-0.6,6.1,1.4c4,4.1,6.9,8.7,8.7,14.3c4.6,14.6,9,29.4,19.6,41.1
		c3.7,4.1,8.4,7.4,12.5,11.1c3.2,2.8,7,5.2,9.2,8.7c5.2,8.1,8,9.4,17.6,7.7c7.8-1.4,15.8-2.3,23.7-2.6c10.7-0.4,15,5.5,12.4,15.8
		c-2.8,11-5.7,21.9-8.3,32.9c-0.7,3.1-0.5,6.4-0.7,9.7C412.1,152.5,412.7,153,413.2,153.5z"/>
</g>
<g>
	<path class="st0" d="M44.1,360.5v-6.1l28.7-11.7l84.6-222.2h4.7L242,349.9l26.9,4.4v6.1h-86.1v-6.1l24-3.8L182,281.1h-77.9
		l-23.7,61.5l26.4,11.7v6.1H44.1z M106.5,275H180l-35.1-103.1L106.5,275z"/>
	<path class="st0" d="M396.3,363.4l-87.3-226.6v205.8l28.1,11.7v6.1h-62.7v-6.1l27.5-11.7V136.8l-26.9-4.1v-6.4h64.7l73.5,188
		l75-188h59.1v6.4l-26.9,4.1v213.2l26.9,4.4v6.1h-86.1v-6.1l26.9-4.4V145.5l-86.7,217.8H396.3z"/>
</g>
</svg>
