<svg id="Layer_1" data-name="Layer 1" xmlns="http://www.w3.org/2000/svg" viewBox="0 0 509.68 474.33"><title>myBlob(13)</title><path d="M562.88,201.55c-5.25-4.81-10.45-9.8-16.27-13.83a31.32,31.32,0,0,1-7-6.51c-.33,21.85-.33,43.75-.33,65.79v13.07c0,30.89,0,61.78.89,91.48l1.4.14c1.07-3.33,2.35-6.54,4.63-8.42,7.89-6.51,10-15.31,12.88-24.08.82-2.52,1.48-5.22,2.87-7.42,4-6.31,2.15-12.52-.13-18.57-1.21-3.21-3.69-5.92-5.32-9-.8-1.51-1.74-3.63-1.26-5,1.48-4.28,2.91-8.89,5.63-12.37,6.18-7.9,10.15-16.11,9.07-26.49-.72-6.93-.43-14-.75-21C568.89,212.82,568.07,206.3,562.88,201.55Z" transform="translate(-60.45 -13.23)"/><path d="M81.32,350.66l20.24-63.06c-6,8.75-12.07,17.52-17.94,26.39a168.78,168.78,0,0,0-11.34,19.22,183.18,183.18,0,0,0-8.21,19.94Z" transform="translate(-60.45 -13.23)"/><path d="M535.11,373.76c.63-3.17,1.46-6.32,2.39-9.44H462.36v-10.1l26.14-2.67c.89-30.3.3-60.29.89-84.35l1.19-95.63-71,192.75H403.86L330.79,173.05c.6,30.89,1.19,69.2,1.19,88.21v88.51l33,4.45v10.1H284.76v-10.1l32.67-4.16,1.19-193.64-31.48-3.86v-10.1h82l60.58,157.71,58.7-157.4-.13,0c-4.95-1.17-10.36-2.16-15.27-1.39-9.14,1.45-18.1,4.13-27.08,6.51-8.44,2.24-16.81,4.76-25.22,7.15l-1.63-1.47c.22-3.23,0-6.56.73-9.67,2.61-11,5.58-21.91,8.34-32.88,2.59-10.3-1.72-16.13-12.38-15.77A170.34,170.34,0,0,0,392,97.8c-9.59,1.69-12.4.43-17.62-7.69-2.22-3.43-6-5.85-9.19-8.66-4.17-3.72-8.79-7-12.53-11.11-10.61-11.67-15-26.49-19.58-41.08A35.05,35.05,0,0,0,324.46,15c-1.95-2-3.51-2-6.09-1.37-7.3,1.81-11.67,7.45-16.86,12C294,32.21,287,39.27,279.18,45.43c-6.22,4.92-13.14,9-20,13a10.33,10.33,0,0,1-7.15,1.3c-10.74-2.92-21.34-6.37-32-9.58s-20.76-3.65-30,4.36c-3.82,3.3-8.85,5.19-13.18,7.94-4.58,2.92-8.49,6.42-8.5,12.54,0,2.49.22,5.09-.37,7.47-1.09,4.39-1.46,10-4.35,12.71-8.29,7.83-18.69,11.67-30.29,9.35-6.39-1.28-11.29.87-16.06,4.23,1.62,11,7.49,19.89,13,29,3.35,5.48,9.92,12.69,13,19.71l5.11-15.91h30.89l71.28,210,23.76,2.67v10.1H173.09v-10.1l26.43-3-18.11-57.32H113.1L96.76,350.36l27.92,3.86v10.1H60.79a15.38,15.38,0,0,0,.11,7c2.08,7,6.34,13.49,10.38,19.73a20.87,20.87,0,0,0,8.46,7.44c11.38,5.07,23.26,7.55,35.94,5.91,11.21-1.44,15.5,1.72,19,12.39.67,2.05.86,4.33,1.85,6.19,1.09,2,2.48,4.4,4.38,5.45,15.34,8.46,30.7,8.9,45.69-.94a86.41,86.41,0,0,1,36-13.73c4.67-.65,8.81,1.48,10.31,6,.73,2.21,1,4.58,1.87,6.72a22.35,22.35,0,0,0,3.48,6.39c6.46,7.4,14.6,11.48,24.59,11,6-.27,11.07,1.42,15.35,5.71a30.23,30.23,0,0,0,6.5,5.44c3.58,1.95,7.51,4.6,11.29,4.59a162.83,162.83,0,0,0,26.79-2.43c6.85-1.16,12.68-.46,18.18,3.92,4.55,3.62,9.31,7,14.16,10.25s10.31,3.94,15.56,1.21c7.63-4,14.72-4,22,.91,5.66,3.79,11.7,7,17.56,10.51,9.94,5.93,16.38,4.7,23-4.58,2-2.84,3.61-6,5.59-8.86.89-1.29,2.11-2.84,3.48-3.24a78.71,78.71,0,0,1,14.05-3.14c10.08-.95,14.46-5.16,15.75-15.36a66.15,66.15,0,0,1,3.18-13.54c.7-2,2.66-4.44,4.59-5.09,12.54-4.22,25.24-8,37.87-11.93q7.81-2.46,15.51-5.25c1.1-.4,2.63-1.5,2.74-2.42.59-4.87,1.83-10,.88-14.64C535.34,388.5,533.64,381.22,535.11,373.76Z" transform="translate(-60.45 -13.23)"/><polygon points="85.32 168.74 55.62 270.31 117.69 270.31 85.32 168.74"/></svg>